<mxfile host="app.diagrams.net" modified="2023-11-10T12:41:34.910Z" agent="Mozilla/5.0 (Windows NT 10.0; Win64; x64) AppleWebKit/537.36 (KHTML, like Gecko) Chrome/119.0.0.0 Safari/537.36 Edg/119.0.0.0" etag="8IAr1rbdgXMFD8i1TJO7" version="22.1.0" type="device">
  <diagram id="C5RBs43oDa-KdzZeNtuy" name="Page-1">
    <mxGraphModel dx="786" dy="506" grid="1" gridSize="10" guides="1" tooltips="1" connect="1" arrows="1" fold="1" page="1" pageScale="1" pageWidth="827" pageHeight="1169" math="0" shadow="0">
      <root>
        <mxCell id="WIyWlLk6GJQsqaUBKTNV-0" />
        <mxCell id="WIyWlLk6GJQsqaUBKTNV-1" parent="WIyWlLk6GJQsqaUBKTNV-0" />
        <mxCell id="a2Kss3YWbpGT1aSL2VL--0" value="&amp;lt;interface&amp;gt;&lt;br&gt;&lt;b&gt;FastFood&lt;/b&gt;" style="swimlane;fontStyle=0;childLayout=stackLayout;horizontal=1;startSize=30;horizontalStack=0;resizeParent=1;resizeParentMax=0;resizeLast=0;collapsible=1;marginBottom=0;whiteSpace=wrap;html=1;" vertex="1" parent="WIyWlLk6GJQsqaUBKTNV-1">
          <mxGeometry x="520" y="200" width="140" height="90" as="geometry" />
        </mxCell>
        <mxCell id="a2Kss3YWbpGT1aSL2VL--1" value="+prepare()" style="text;strokeColor=none;fillColor=none;align=left;verticalAlign=middle;spacingLeft=4;spacingRight=4;overflow=hidden;points=[[0,0.5],[1,0.5]];portConstraint=eastwest;rotatable=0;whiteSpace=wrap;html=1;" vertex="1" parent="a2Kss3YWbpGT1aSL2VL--0">
          <mxGeometry y="30" width="140" height="30" as="geometry" />
        </mxCell>
        <mxCell id="a2Kss3YWbpGT1aSL2VL--2" value="+serve()" style="text;strokeColor=none;fillColor=none;align=left;verticalAlign=middle;spacingLeft=4;spacingRight=4;overflow=hidden;points=[[0,0.5],[1,0.5]];portConstraint=eastwest;rotatable=0;whiteSpace=wrap;html=1;" vertex="1" parent="a2Kss3YWbpGT1aSL2VL--0">
          <mxGeometry y="60" width="140" height="30" as="geometry" />
        </mxCell>
        <mxCell id="a2Kss3YWbpGT1aSL2VL--4" value="&lt;b&gt;Burgers&lt;/b&gt;" style="rounded=0;whiteSpace=wrap;html=1;" vertex="1" parent="WIyWlLk6GJQsqaUBKTNV-1">
          <mxGeometry x="450" y="340" width="120" height="60" as="geometry" />
        </mxCell>
        <mxCell id="a2Kss3YWbpGT1aSL2VL--5" value="&lt;b&gt;Drinks&lt;/b&gt;" style="rounded=0;whiteSpace=wrap;html=1;" vertex="1" parent="WIyWlLk6GJQsqaUBKTNV-1">
          <mxGeometry x="620" y="340" width="120" height="60" as="geometry" />
        </mxCell>
        <mxCell id="a2Kss3YWbpGT1aSL2VL--13" value="" style="group;dashed=1;" vertex="1" connectable="0" parent="WIyWlLk6GJQsqaUBKTNV-1">
          <mxGeometry x="510" y="310" width="170" height="10" as="geometry" />
        </mxCell>
        <mxCell id="a2Kss3YWbpGT1aSL2VL--11" style="edgeStyle=orthogonalEdgeStyle;rounded=0;orthogonalLoop=1;jettySize=auto;html=1;exitX=0.5;exitY=0;exitDx=0;exitDy=0;dashed=1;endArrow=block;endFill=0;" edge="1" parent="a2Kss3YWbpGT1aSL2VL--13" source="a2Kss3YWbpGT1aSL2VL--4">
          <mxGeometry relative="1" as="geometry">
            <mxPoint x="80" y="-20" as="targetPoint" />
            <Array as="points">
              <mxPoint />
              <mxPoint x="80" />
            </Array>
          </mxGeometry>
        </mxCell>
        <mxCell id="a2Kss3YWbpGT1aSL2VL--12" style="edgeStyle=orthogonalEdgeStyle;rounded=0;orthogonalLoop=1;jettySize=auto;html=1;exitX=0.5;exitY=0;exitDx=0;exitDy=0;dashed=1;endArrow=block;endFill=0;" edge="1" parent="a2Kss3YWbpGT1aSL2VL--13" source="a2Kss3YWbpGT1aSL2VL--5">
          <mxGeometry relative="1" as="geometry">
            <mxPoint x="80" y="-20" as="targetPoint" />
            <Array as="points">
              <mxPoint x="170" />
              <mxPoint x="80" />
            </Array>
          </mxGeometry>
        </mxCell>
        <mxCell id="a2Kss3YWbpGT1aSL2VL--14" value="&lt;b&gt;FastFoodFactory&lt;/b&gt;" style="swimlane;fontStyle=0;childLayout=stackLayout;horizontal=1;startSize=30;horizontalStack=0;resizeParent=1;resizeParentMax=0;resizeLast=0;collapsible=1;marginBottom=0;whiteSpace=wrap;html=1;" vertex="1" parent="WIyWlLk6GJQsqaUBKTNV-1">
          <mxGeometry x="160" y="200" width="160" height="60" as="geometry" />
        </mxCell>
        <mxCell id="a2Kss3YWbpGT1aSL2VL--15" value="+createFastFood: FastFood" style="text;strokeColor=none;fillColor=none;align=left;verticalAlign=middle;spacingLeft=4;spacingRight=4;overflow=hidden;points=[[0,0.5],[1,0.5]];portConstraint=eastwest;rotatable=0;whiteSpace=wrap;html=1;" vertex="1" parent="a2Kss3YWbpGT1aSL2VL--14">
          <mxGeometry y="30" width="160" height="30" as="geometry" />
        </mxCell>
        <mxCell id="a2Kss3YWbpGT1aSL2VL--21" value="" style="endArrow=open;html=1;rounded=0;entryX=0.007;entryY=0.006;entryDx=0;entryDy=0;entryPerimeter=0;exitX=0.998;exitY=0;exitDx=0;exitDy=0;exitPerimeter=0;dashed=1;endFill=0;" edge="1" parent="WIyWlLk6GJQsqaUBKTNV-1" source="a2Kss3YWbpGT1aSL2VL--15" target="a2Kss3YWbpGT1aSL2VL--1">
          <mxGeometry width="50" height="50" relative="1" as="geometry">
            <mxPoint x="400" y="230" as="sourcePoint" />
            <mxPoint x="510" y="230" as="targetPoint" />
          </mxGeometry>
        </mxCell>
        <mxCell id="a2Kss3YWbpGT1aSL2VL--30" style="edgeStyle=orthogonalEdgeStyle;rounded=0;orthogonalLoop=1;jettySize=auto;html=1;exitX=0.5;exitY=0;exitDx=0;exitDy=0;entryX=0.438;entryY=1;entryDx=0;entryDy=0;entryPerimeter=0;endArrow=block;endFill=0;" edge="1" parent="WIyWlLk6GJQsqaUBKTNV-1" source="a2Kss3YWbpGT1aSL2VL--22" target="a2Kss3YWbpGT1aSL2VL--15">
          <mxGeometry relative="1" as="geometry">
            <mxPoint x="230" y="270" as="targetPoint" />
          </mxGeometry>
        </mxCell>
        <mxCell id="a2Kss3YWbpGT1aSL2VL--22" value="&lt;b&gt;BurgerFactory&lt;/b&gt;" style="swimlane;fontStyle=0;childLayout=stackLayout;horizontal=1;startSize=30;horizontalStack=0;resizeParent=1;resizeParentMax=0;resizeLast=0;collapsible=1;marginBottom=0;whiteSpace=wrap;html=1;" vertex="1" parent="WIyWlLk6GJQsqaUBKTNV-1">
          <mxGeometry x="50" y="320" width="160" height="60" as="geometry" />
        </mxCell>
        <mxCell id="a2Kss3YWbpGT1aSL2VL--23" value="+createFastFood: FastFood" style="text;strokeColor=none;fillColor=none;align=left;verticalAlign=middle;spacingLeft=4;spacingRight=4;overflow=hidden;points=[[0,0.5],[1,0.5]];portConstraint=eastwest;rotatable=0;whiteSpace=wrap;html=1;" vertex="1" parent="a2Kss3YWbpGT1aSL2VL--22">
          <mxGeometry y="30" width="160" height="30" as="geometry" />
        </mxCell>
        <mxCell id="a2Kss3YWbpGT1aSL2VL--26" value="&lt;b&gt;DrinksFactory&lt;/b&gt;" style="swimlane;fontStyle=0;childLayout=stackLayout;horizontal=1;startSize=30;horizontalStack=0;resizeParent=1;resizeParentMax=0;resizeLast=0;collapsible=1;marginBottom=0;whiteSpace=wrap;html=1;" vertex="1" parent="WIyWlLk6GJQsqaUBKTNV-1">
          <mxGeometry x="260" y="320" width="166" height="60" as="geometry">
            <mxRectangle x="260" y="320" width="120" height="30" as="alternateBounds" />
          </mxGeometry>
        </mxCell>
        <mxCell id="a2Kss3YWbpGT1aSL2VL--27" value="+createFastFood: FastFood" style="text;strokeColor=none;fillColor=none;align=left;verticalAlign=middle;spacingLeft=4;spacingRight=4;overflow=hidden;points=[[0,0.5],[1,0.5]];portConstraint=eastwest;rotatable=0;whiteSpace=wrap;html=1;" vertex="1" parent="a2Kss3YWbpGT1aSL2VL--26">
          <mxGeometry y="30" width="166" height="30" as="geometry" />
        </mxCell>
        <mxCell id="a2Kss3YWbpGT1aSL2VL--33" value="" style="endArrow=none;html=1;rounded=0;targetPerimeterSpacing=1;sourcePerimeterSpacing=1;endSize=7;startSize=7;" edge="1" parent="WIyWlLk6GJQsqaUBKTNV-1">
          <mxGeometry width="50" height="50" relative="1" as="geometry">
            <mxPoint x="230" y="290" as="sourcePoint" />
            <mxPoint x="340" y="290" as="targetPoint" />
          </mxGeometry>
        </mxCell>
        <mxCell id="a2Kss3YWbpGT1aSL2VL--36" value="" style="endArrow=none;html=1;rounded=0;exitX=0.482;exitY=0;exitDx=0;exitDy=0;exitPerimeter=0;endSize=7;targetPerimeterSpacing=1;sourcePerimeterSpacing=1;startSize=7;" edge="1" parent="WIyWlLk6GJQsqaUBKTNV-1" source="a2Kss3YWbpGT1aSL2VL--26">
          <mxGeometry width="50" height="50" relative="1" as="geometry">
            <mxPoint x="310" y="320" as="sourcePoint" />
            <mxPoint x="340" y="290" as="targetPoint" />
            <Array as="points">
              <mxPoint x="340" y="300" />
            </Array>
          </mxGeometry>
        </mxCell>
        <mxCell id="a2Kss3YWbpGT1aSL2VL--37" value="return new Burgers()" style="shape=note;whiteSpace=wrap;html=1;backgroundOutline=1;darkOpacity=0.05;size=14;fillColor=#fff2cc;strokeColor=#d6b656;fillStyle=hatch;" vertex="1" parent="WIyWlLk6GJQsqaUBKTNV-1">
          <mxGeometry x="55" y="430" width="150" height="30" as="geometry" />
        </mxCell>
        <mxCell id="a2Kss3YWbpGT1aSL2VL--38" value="" style="endArrow=none;dashed=1;html=1;dashPattern=1 3;strokeWidth=2;rounded=0;exitX=0.5;exitY=0;exitDx=0;exitDy=0;exitPerimeter=0;" edge="1" parent="WIyWlLk6GJQsqaUBKTNV-1" source="a2Kss3YWbpGT1aSL2VL--37" target="a2Kss3YWbpGT1aSL2VL--23">
          <mxGeometry width="50" height="50" relative="1" as="geometry">
            <mxPoint x="129.82" y="400" as="sourcePoint" />
            <mxPoint x="130.18" y="380" as="targetPoint" />
          </mxGeometry>
        </mxCell>
      </root>
    </mxGraphModel>
  </diagram>
</mxfile>
